<svg width="1500" height="1500" viewBox="0 0 1500 1500" fill="none" xmlns="http://www.w3.org/2000/svg">
<circle cx="750" cy="750" r="750" fill="#2B2BFF"/>
<path d="M290 720L324.641 660L255.359 660L290 720ZM284 520L284 666L296 666L296 520L284 520Z" fill="white"/>
<path d="M519 720L553.641 660L484.359 660L519 720ZM513 520L513 666L525 666L525 520L513 520Z" fill="white"/>
<path d="M751 720L785.641 660L716.359 660L751 720ZM745 520L745 666L757 666L757 520L745 520Z" fill="white"/>
<path d="M987 720L1021.64 660L952.359 660L987 720ZM981 520L981 666L993 666L993 520L981 520Z" fill="white"/>
<path d="M1221 720L1255.64 660L1186.36 660L1221 720ZM1215 520L1215 666L1227 666L1227 520L1215 520Z" fill="white"/>
<path d="M183 763.494H467V1223.5H183V763.494ZM479 1223.5V763.494H746.5V1223.5H479ZM1027.02 1223.5H758.5V763.494H1027.99L1027.02 1223.5ZM1039.02 1223.5L1039.99 763.494H1317V1223.5H1039.02Z" fill="#141820" stroke="#01F0FF" stroke-width="12"/>
<path d="M408.5 1081.85H363.5V1010.6H301V1081.85H256V906.854H301V975.604H363.5V906.854H408.5V1081.85Z" fill="#01F0FF"/>
<path d="M648.5 954.354C648.5 944.354 643.5 939.354 633.5 939.354H591C581 939.354 576 944.354 576 954.354V1034.35C576 1044.35 581 1049.35 591 1049.35H633.5C643.5 1049.35 648.5 1044.35 648.5 1034.35V954.354ZM693.5 1034.35C693.5 1051.85 689.5 1064.6 681.5 1072.6C673.667 1080.44 661 1084.35 643.5 1084.35H581C563.5 1084.35 550.75 1080.44 542.75 1072.6C534.917 1064.6 531 1051.85 531 1034.35V954.354C531 936.854 534.917 924.187 542.75 916.354C550.75 908.354 563.5 904.354 581 904.354H643.5C661 904.354 673.667 908.354 681.5 916.354C689.5 924.187 693.5 936.854 693.5 954.354V1034.35Z" fill="#01F0FF"/>
<path d="M818.75 1045.6C864.417 1048.1 895.333 1049.35 911.5 1049.35C915.333 1049.35 918.333 1048.27 920.5 1046.1C922.833 1043.77 924 1040.69 924 1036.85V1014.35H866.5C849 1014.35 836.25 1010.44 828.25 1002.6C820.417 994.604 816.5 981.854 816.5 964.354V956.854C816.5 939.354 820.417 926.687 828.25 918.854C836.25 910.854 849 906.854 866.5 906.854H954.25V941.854H876.5C866.5 941.854 861.5 946.854 861.5 956.854V961.854C861.5 971.854 866.5 976.854 876.5 976.854H921.5C937.833 976.854 949.833 980.687 957.5 988.354C965.167 996.02 969 1008.02 969 1024.35V1036.85C969 1053.19 965.167 1065.19 957.5 1072.85C949.833 1080.52 937.833 1084.35 921.5 1084.35C913 1084.35 904 1084.19 894.5 1083.85L871.5 1082.85C854.5 1082.02 836.917 1080.85 818.75 1079.35V1045.6Z" fill="#01F0FF"/>
<path d="M1195 1081.85H1150V941.854H1097.5V906.854H1247.5V941.854H1195V1081.85Z" fill="#01F0FF"/>
<path d="M239 822.858H427" stroke="#01F0FF" stroke-width="12"/>
<path d="M239 859.78H427" stroke="#01F0FF" stroke-width="12"/>
<path d="M239 1131.21H427" stroke="#01F0FF" stroke-width="12"/>
<path d="M239 1167.14H427" stroke="#01F0FF" stroke-width="12"/>
<path d="M519 822.858H707" stroke="#01F0FF" stroke-width="12"/>
<path d="M519 859.78H707" stroke="#01F0FF" stroke-width="12"/>
<path d="M519 1131.21H707" stroke="#01F0FF" stroke-width="12"/>
<path d="M519 1167.14H707" stroke="#01F0FF" stroke-width="12"/>
<path d="M799 822.858H987" stroke="#01F0FF" stroke-width="12"/>
<path d="M799 859.78H987" stroke="#01F0FF" stroke-width="12"/>
<path d="M799 1131.21H987" stroke="#01F0FF" stroke-width="12"/>
<path d="M799 1167.14H987" stroke="#01F0FF" stroke-width="12"/>
<path d="M1079 822.858H1267" stroke="#01F0FF" stroke-width="12"/>
<path d="M1079 859.78H1267" stroke="#01F0FF" stroke-width="12"/>
<path d="M1079 1131.21H1267" stroke="#01F0FF" stroke-width="12"/>
<path d="M1079 1167.14H1267" stroke="#01F0FF" stroke-width="12"/>
<path d="M177 282H389V456.754H177V282Z" fill="#01F0FF"/>
<path d="M284.006 456.754V489M284.006 489H252.81M284.006 489H313.525M177 282H389V456.754H177V282Z" stroke="#141820" stroke-width="12"/>
<path d="M411 282H623V456.754H411V282Z" fill="#01F0FF"/>
<path d="M518.006 456.754V489M518.006 489H486.81M518.006 489H547.525M411 282H623V456.754H411V282Z" stroke="#141820" stroke-width="12"/>
<path d="M645 282H857V456.754H645V282Z" fill="#01F0FF"/>
<path d="M752.006 456.754V489M752.006 489H720.81M752.006 489H781.525M645 282H857V456.754H645V282Z" stroke="#141820" stroke-width="12"/>
<path d="M879 282H1091V456.754H879V282Z" fill="#01F0FF"/>
<path d="M986.006 456.754V489M986.006 489H954.81M986.006 489H1015.53M879 282H1091V456.754H879V282Z" stroke="#141820" stroke-width="12"/>
<path d="M1113 282H1325V456.754H1113V282Z" fill="#01F0FF"/>
<path d="M1220.01 456.754V489M1220.01 489H1188.81M1220.01 489H1249.53M1113 282H1325V456.754H1113V282Z" stroke="#141820" stroke-width="12"/>
<path d="M1204.88 402.46V379.42H1260.86V352.78H1204.88V331.54H1268.42V304H1169.6V430H1270.76V402.46H1204.88Z" fill="black"/>
<path d="M1056.12 430L1055.76 304H1026.42L983.22 376.72L938.94 304H909.6V430H942.54V365.02L974.76 417.58H990.6L1023 363.22L1023.36 430H1056.12Z" fill="black"/>
<path d="M732.6 430H768.24V304H732.6V430Z" fill="black"/>
<path d="M539.54 430H577.7L550.52 390.4C566.18 382.84 575.18 369.16 575.18 350.62C575.18 321.82 553.58 304 519.2 304H461.6V430H497.24V396.52H516.68L539.54 430ZM539.18 350.62C539.18 362.14 531.8 368.98 517.04 368.98H497.24V332.08H517.04C531.8 332.08 539.18 338.92 539.18 350.62Z" fill="black"/>
<path d="M287.2 304H229.6V430H265.24V397.06H287.2C321.58 397.06 343.18 379.24 343.18 350.62C343.18 321.82 321.58 304 287.2 304ZM285.04 368.98H265.24V332.08H285.04C299.8 332.08 307.18 338.92 307.18 350.62C307.18 362.14 299.8 368.98 285.04 368.98Z" fill="black"/>
</svg>
